<svg viewBox="0 0 128 26.3" xmlns="http://www.w3.org/2000/svg"><g fill="#231f20"><path d="m114.7 12.7-7.6-10.3h5.1l5 6.9 5-6.9h5.1l-7.6 10.3 8.2 11.2h-5.1l-5.7-7.7-5.7 7.7h-5.1l8.2-11.2z"/><path d="m90.7 2.4v12.5c0 1.6.5 2.8 1.5 3.6s2.2 1.2 3.6 1.2 2.7-.4 3.6-1.2c1-.8 1.5-2 1.5-3.6v-12.5h4.4v13.7c0 2.2-.9 4.1-2.7 5.6s-4 2.3-6.7 2.3-5-.8-6.7-2.3c-1.8-1.5-2.7-3.4-2.7-5.6v-13.7h4.4z"/><path d="m70.5 20.5h7.1c2 0 3.1-1.1 3.1-3.1 0-1.4-1.1-2.1-3.1-2.2h-7.2v5.3zm0-9.5h6.1c1.8 0 2.7-.9 2.7-2.7 0-1.1-.9-1.6-2.7-1.7h-6.2v4.4zm11.5 1.5c1.9 1.3 2.7 2.9 2.7 5 0 3.5-2.1 6.2-6.3 6.4h-12.3v-21.5h11.1c3.7 0 6.5 2.3 6.4 6.2 0 1.9-.8 3.4-1.8 4z"/><path d="m50.4 11h6.1c1.7 0 2.6-.8 2.7-2.4 0-1.4-.9-2.2-2.6-2.2h-6.1v4.6zm8.8 3.5 5.4 9.4h-5l-5.2-8.9h-4v8.9h-4.3v-21.5h9.5c5.1 0 7.6 2.1 7.6 6.2s-1.3 5.1-4 6z"/><path d="m34.6 9.5 1.7-6.3 8.5 20.8h-4.6l-1.3-3.3h-7.2l1.2-4.3h4.4l-2.7-6.8z"/></g><path d="m17.5 7-5.2 19.3h-5.2l-7.1-26.3h5.6l4.6 17.9 4.7-17.9h5.4l4.6 17.9 4.5-17.9h5.6l-7 26.3h-5.3l-5.3-19.3z" fill="#f0591c"/></svg>